# xmcd
# 
# Track frame offsets:
#     150
#     37312
#     63502
#     94192
#     203712
# 
# Disc length: 2720
# 
# Revision: 0
# Processed by: cddbd v1.5.2PL0 Copyright (c) Steve Scherf et al.
# Submitted via: BonkEnc v1.0.6
# 
DISCID=450a9e05
DTITLE=Keef Hartley Band - Little big band
DYEAR=2004
DGENRE=Blues
TTITLE0=You can't take it with you
TTITLE1=Me and my woman
TTITLE2=Not foolish, not wise
TTITLE3=Leg overture (Medley)
TTITLE4=Leavin' trunk
EXTD=
EXTT0=
EXTT1=
EXTT2=
EXTT3=
EXTT4=
PLAYORDER=
